<svg width="1366" height="696" viewBox="0 0 1366 696" fill="none" xmlns="http://www.w3.org/2000/svg">
<rect width="1366" height="696" fill="#5E31AD"/>
<ellipse cx="1056.5" cy="78" rx="28.5" ry="26" fill="white" fill-opacity="0.6"/>
<ellipse cx="1288.5" cy="326" rx="12.5" ry="13" fill="white" fill-opacity="0.5"/>
<ellipse cx="682.5" cy="645" rx="18.5" ry="18" fill="white" fill-opacity="0.7"/>
<ellipse cx="147.5" cy="78.5" rx="34.5" ry="33.5" fill="white" fill-opacity="0.3"/>
<path fill-rule="evenodd" clip-rule="evenodd" d="M1366 0H1163.04C1163.01 1.16308 1163 2.32981 1163 3.5C1163 78.3346 1220.31 139 1291 139C1319.01 139 1344.92 129.474 1366 113.315V0Z" fill="white" fill-opacity="0.1"/>
<path fill-rule="evenodd" clip-rule="evenodd" d="M39.9813 501.096C25.982 493.452 12.385 486.029 0 477.888V231.6C94.2417 105.909 122.013 204.474 153.92 317.722C183.936 424.256 217.613 543.784 313.731 501.838C506.782 452.088 625.451 600.036 582.679 696H181.227C180.339 693.24 179.472 690.432 178.626 687.575C168.303 571.158 100.396 534.082 39.9813 501.096Z" fill="white" fill-opacity="0.1"/>
<path fill-rule="evenodd" clip-rule="evenodd" d="M954.871 696H741.129C763.401 665.37 802.938 645 848 645C893.062 645 932.6 665.37 954.871 696Z" fill="white" fill-opacity="0.2"/>
<path fill-rule="evenodd" clip-rule="evenodd" d="M1259.56 696C1275.14 686.249 1290.82 671.979 1306.92 652.134C1437.95 490.58 1219.32 248.539 1012.47 397.899C902.072 442.966 868.148 322.618 836.222 209.362C800.14 81.3582 766.612 -37.5854 628.119 101.583C497.089 263.137 368.568 526.652 825 597.335C926.987 600.833 1004.54 638.263 1069.67 669.692C1089.85 679.434 1108.84 688.6 1127 696H1259.56Z" fill="white" fill-opacity="0.3"/>
</svg>
