<svg width="400" height="400" viewBox="0 0 400 400" fill="none" xmlns="http://www.w3.org/2000/svg">
<g clip-path="url(#clip0_442_5856)">
<rect width="400" height="400" rx="200" fill="white"/>
<path d="M402 201C402 311.457 312.457 401 202 401C91.5431 401 2 311.457 2 201C2 90.5431 91.5431 1 202 1C312.457 1 402 90.5431 402 201Z" fill="#5E31AD"/>
<circle cx="266" cy="206.957" r="138" fill="#C32929"/>
<rect x="122.71" y="198.01" width="225.879" height="210" transform="rotate(-4.16613 122.71 198.01)" fill="#9B581A"/>
<rect x="218" y="332.021" width="73.0711" height="73.0711" transform="rotate(-10.5846 218 332.021)" fill="#FFC792"/>
<circle cx="239.5" cy="248.1" r="127.08" transform="rotate(23.7508 239.5 248.1)" fill="#FFDEBF"/>
<ellipse cx="202" cy="244.1" rx="10" ry="9.5" fill="#FFC792"/>
<ellipse cx="256.092" cy="246.794" rx="14.6142" ry="25.5749" transform="rotate(10.6587 256.092 246.794)" fill="#4F250E"/>
<ellipse cx="256.092" cy="246.794" rx="14.6142" ry="25.5749" transform="rotate(10.6587 256.092 246.794)" fill="#4F250E"/>
<ellipse cx="164.618" cy="227.622" rx="14.6142" ry="25.5749" transform="rotate(4.59975 164.618 227.622)" fill="#4F250E"/>
<ellipse cx="164.618" cy="227.622" rx="14.6142" ry="25.5749" transform="rotate(4.59975 164.618 227.622)" fill="#4F250E"/>
<path d="M155 131.1L353.247 188.648L337.9 240.478L120 179.1L155 131.1Z" fill="#9B581A"/>
<ellipse cx="164.856" cy="187.09" rx="9.5" ry="17" transform="rotate(84.3311 164.856 187.09)" fill="#4F250E"/>
<ellipse cx="164.856" cy="187.09" rx="9.5" ry="17" transform="rotate(84.3311 164.856 187.09)" fill="#4F250E"/>
<rect x="311" y="196.865" width="59.4625" height="210" transform="rotate(-4.16613 311 196.865)" fill="#9B581A"/>
<path d="M375.498 204.6C372.535 225.114 314.583 209.263 257.115 187.425C199.646 165.587 152.043 147.452 158.676 129.997C179.098 101.058 234.273 89.6542 291.584 114.252C349.053 136.09 387.031 185.612 375.498 204.6Z" fill="#9B581A"/>
<ellipse cx="291.187" cy="198.401" rx="10.068" ry="17.619" transform="rotate(125.609 291.187 198.401)" fill="#4F250E"/>
<ellipse cx="291.187" cy="198.401" rx="10.068" ry="17.619" transform="rotate(125.609 291.187 198.401)" fill="#4F250E"/>
<path d="M358.519 212.942L380.5 226.956L375 257.456L370.995 266.12L347.107 305.508L319.5 343.5L284.5 368.5L260.5 374L300.811 335.806L325.618 293.444L347.17 253.394L358.519 212.942Z" fill="black"/>
<circle cx="346.772" cy="303.371" r="31.6918" transform="rotate(23.7508 346.772 303.371)" fill="#FFC792"/>
<path d="M390 217.5C381.476 232.782 334.276 205.277 277.69 173.714C221.105 142.151 164.476 127.782 173 112.5C181.524 97.2184 251.974 86.8099 308.559 118.373C365.144 149.936 398.524 202.218 390 217.5Z" fill="#C32929"/>
<path d="M381.687 238.053C373.913 255.132 317.207 198.648 247.522 166.929C177.837 135.211 123.039 137.333 130.813 120.254C138.587 103.175 194.304 112.131 263.989 143.85C333.675 175.568 389.461 220.974 381.687 238.053Z" fill="#CC6868"/>
<path d="M178.131 268.561L207.313 273.199L206.211 280.129L177.03 275.49L178.131 268.561Z" fill="#4F250E"/>
</g>
<defs>
<clipPath id="clip0_442_5856">
<rect width="400" height="400" rx="200" fill="white"/>
</clipPath>
</defs>
</svg>
