<svg xmlns="http://www.w3.org/2000/svg" width="468" height="480" viewBox="0 0 468 480" fill="none">
  <path d="M229.895 152.852C241.488 137.866 248.388 119.064 248.388 98.6515C248.388 49.6906 208.697 10 159.736 10C134.257 10 111.288 20.7487 95.1175 37.959C83.0738 36.5706 75.0652 38.1775 72.8916 42.953C70.9021 47.3238 75.2917 49.7371 84.1238 52.347C83.3634 53.586 82.6327 54.8451 81.9325 56.1233C73.2296 62.4001 68.558 69.4307 70.096 75.5484C70.553 77.3664 71.5314 78.9961 72.9599 80.426C72.4509 82.862 72.0418 85.3348 71.7372 87.8398C70.5793 89.9074 69.4927 92.0885 68.4818 94.3858C50.3227 135.654 69.0563 183.829 110.324 201.988C118.338 205.515 126.613 207.65 134.877 208.499L136.721 218.367C125.761 220.161 115.738 224.74 107.401 231.352C106.71 231.064 106.003 230.799 105.282 230.558C89.0257 225.118 71.4373 233.887 65.9973 250.143L61.6781 263.051C59.2077 270.433 59.6675 278.09 62.4282 284.76L41.4267 335.587C39.0349 336.151 36.6605 336.94 34.3303 337.966C13.7456 347.024 4.40124 371.054 13.459 391.638C22.5168 412.223 46.5468 421.567 67.1315 412.51C80.8472 406.474 89.5726 393.792 91.1891 379.91C102.121 399.537 123.08 412.814 147.14 412.814H181.668C201.582 412.814 219.372 403.718 231.11 389.455C234.817 399.401 242.384 407.897 252.867 412.51C273.452 421.567 297.482 412.223 306.54 391.638C315.597 371.054 306.253 347.024 285.668 337.966C284.215 337.326 282.744 336.778 281.262 336.32L257.57 278.98C260.331 272.31 260.791 264.652 258.321 257.269L254.001 244.361C248.561 228.105 230.973 219.336 214.716 224.776C214.028 225.007 213.352 225.259 212.691 225.532C204.229 220.833 194.59 217.997 184.327 217.578L180.976 199.642C189.659 195.117 197.564 189.021 204.218 181.538C214.442 185.844 226.266 181.163 230.75 170.972C233.421 164.902 232.891 158.231 229.895 152.852Z" fill="black"/>
  <path d="M432.457 207.917C443.864 192.953 450.638 174.261 450.638 153.984C450.638 104.84 410.84 65 361.747 65C336.199 65 313.169 75.7891 296.954 93.0641C284.878 91.6704 276.847 93.2833 274.668 98.0768C272.673 102.464 277.075 104.886 285.931 107.506C284.331 110.115 282.862 112.813 281.533 115.591L267.703 136.021L274.31 137.873C274.249 138.207 274.189 138.542 274.132 138.877C272.579 141.53 271.118 144.405 269.753 147.511C258.517 173.071 261.367 201.272 274.92 223.404L279.276 283.269L335.542 279.166C332.247 282.33 329.386 286.159 327.139 290.651L266.415 412.065C252.691 439.506 272.623 471.809 303.278 471.809H402.637C405.089 473.649 407.789 475.239 410.714 476.528C431.355 485.62 455.449 476.24 464.532 455.578C468.866 445.717 468.998 435.069 465.708 425.642C465.154 421.094 463.814 416.516 461.588 412.065L400.864 290.651C397.622 284.169 393.1 279.069 387.845 275.352L399.974 274.468L400.56 282.53L436.51 279.909L432.301 224.736C432.355 224.619 432.408 224.502 432.46 224.384C434.86 218.923 434.682 212.979 432.457 207.917Z" fill="black"/>
  <path d="M94.4811 291.984L52.6607 274.694L13.6223 369.229L55.4428 386.519L94.4811 291.984Z" fill="#FFDEBF"/>
  <path d="M118.292 250.255C121.898 239.474 116.086 227.809 105.31 224.201L85.4128 217.539C74.6375 213.931 62.9793 219.746 59.3736 230.528L48.3924 263.363C44.7867 274.145 50.5988 285.81 61.3741 289.417L81.2716 296.08C92.0469 299.688 103.705 293.872 107.311 283.09L118.292 250.255Z" fill="#F1B33A"/>
  <path d="M3.46187 382.178C12.5271 402.791 36.5768 412.149 57.1784 403.078C77.78 394.008 87.1321 369.944 78.0668 349.33C69.0016 328.716 44.9519 319.359 24.3503 328.429C3.7487 337.5 -5.60337 361.564 3.46187 382.178Z" fill="#FFC792"/>
  <path d="M73.2004 265.715C73.2004 233.739 99.1069 207.817 131.064 207.817H177.998C209.955 207.817 235.862 233.739 235.862 265.715V345.485C235.862 377.461 209.955 403.383 177.998 403.383H131.064C99.1069 403.383 73.2004 377.461 73.2004 345.485V265.715Z" fill="#FFCD6B"/>
  <path d="M238.584 88.7768C238.584 137.807 198.861 177.554 149.86 177.554C100.859 177.554 61.1354 137.807 61.1354 88.7768C61.1354 39.7467 100.859 0 149.86 0C198.861 0 238.584 39.7467 238.584 88.7768Z" fill="#3F84C5"/>
  <path d="M124.91 198.398L171.09 189.763L175.211 211.827L129.03 220.462L124.91 198.398Z" fill="#FFC792"/>
  <path d="M208.098 150.358C189.924 191.685 141.71 210.445 100.407 192.26C59.1055 174.075 40.3565 125.832 58.5304 84.5055C76.7044 43.1791 119.337 39.4195 160.639 57.6042C201.941 75.789 226.272 109.032 208.098 150.358Z" fill="#FFDEBF"/>
  <path d="M115.634 114.859C115.634 118.234 112.755 120.97 109.204 120.97C105.654 120.97 102.775 118.234 102.775 114.859C102.775 111.483 105.654 108.747 109.204 108.747C112.755 108.747 115.634 111.483 115.634 114.859Z" fill="#FFC792"/>
  <path d="M159.475 113.324C157.795 122.254 152.299 128.714 147.2 127.754C142.1 126.794 139.327 118.776 141.007 109.846C142.687 100.917 148.182 94.4562 153.282 95.4165C158.382 96.3769 161.154 104.394 159.475 113.324Z" fill="#4F250E"/>
  <path d="M159.475 113.324C157.795 122.254 152.299 128.714 147.2 127.754C142.1 126.794 139.327 118.776 141.007 109.846C142.687 100.917 148.182 94.4562 153.282 95.4165C158.382 96.3769 161.154 104.394 159.475 113.324Z" fill="#4F250E"/>
  <path d="M102.008 104.867C101.279 113.925 96.4957 120.93 91.3232 120.513C86.1507 120.097 82.5479 112.417 83.2762 103.36C84.0044 94.3023 88.788 87.2975 93.9605 87.7139C99.133 88.1303 102.736 95.8102 102.008 104.867Z" fill="#4F250E"/>
  <path d="M102.008 104.867C101.279 113.925 96.4957 120.93 91.3232 120.513C86.1507 120.097 82.5479 112.417 83.2762 103.36C84.0044 94.3023 88.788 87.2975 93.9605 87.7139C99.133 88.1303 102.736 95.8102 102.008 104.867Z" fill="#4F250E"/>
  <path d="M60.148 65.6411C63.0729 77.2824 87.3298 81.2143 114.327 74.4232C141.325 67.6321 153.92 61.8471 150.995 50.2058C137.493 47.6326 130.743 48.9192 103.736 32.2663C76.738 39.0575 57.2232 53.9999 60.148 65.6411Z" fill="#9B581A"/>
  <path d="M215.227 112.509C205.961 122.048 182.662 114.426 163.187 95.4853C143.713 76.5448 135.621 59.4227 144.887 49.884C157.609 63.8907 169.775 55.7113 189.25 74.6518C208.724 93.5924 224.493 102.97 215.227 112.509Z" fill="#9B581A"/>
  <path d="M90.2858 86.7049C84.4529 88.2599 79.0203 86.8766 78.1519 83.6151C77.2834 80.3537 81.3078 76.4491 87.1407 74.8941C92.9736 73.339 98.4061 74.7223 99.2746 77.9838C100.143 81.2453 96.1186 85.1499 90.2858 86.7049Z" fill="#4F250E"/>
  <path d="M90.2858 86.7049C84.4529 88.2599 79.0203 86.8766 78.1519 83.6151C77.2834 80.3537 81.3078 76.4491 87.1407 74.8941C92.9736 73.339 98.4061 74.7223 99.2746 77.9838C100.143 81.2453 96.1186 85.1499 90.2858 86.7049Z" fill="#4F250E"/>
  <path d="M159.48 85.7335C154.708 81.6855 152.714 76.192 155.025 73.4635C157.337 70.735 163.08 71.8047 167.852 75.8528C172.624 79.9008 174.618 85.3943 172.307 88.1228C169.995 90.8513 164.252 89.7816 159.48 85.7335Z" fill="#4F250E"/>
  <path d="M159.48 85.7335C154.708 81.6855 152.714 76.192 155.025 73.4635C157.337 70.735 163.08 71.8047 167.852 75.8528C172.624 79.9008 174.618 85.3943 172.307 88.1228C169.995 90.8513 164.252 89.7816 159.48 85.7335Z" fill="#4F250E"/>
  <path d="M209.344 92.6271L223.477 101.642L219.941 121.263L217.366 126.837L204.037 153.779L183.784 178.868L163.532 193.664L146.174 198.489L172.242 171.667L190.214 145.094L202.048 118.65L209.344 92.6271Z" fill="black"/>
  <path d="M224.24 108.781C219.241 119.768 182.783 83.4314 137.981 63.0266C93.1779 42.6218 57.9469 43.9869 62.9449 32.9997C67.943 22.0125 103.765 27.7745 148.568 48.1793C193.371 68.5841 229.238 97.7938 224.24 108.781Z" fill="#689DCE"/>
  <path d="M145.209 235.479C145.209 241.164 140.603 245.772 134.922 245.772C129.24 245.772 124.635 241.164 124.635 235.479C124.635 229.795 129.24 225.186 134.922 225.186C140.603 225.186 145.209 229.795 145.209 235.479Z" fill="black"/>
  <path d="M145.209 267.001C145.209 272.686 140.603 277.294 134.922 277.294C129.24 277.294 124.635 272.686 124.635 267.001C124.635 261.317 129.24 256.708 134.922 256.708C140.603 256.708 145.209 261.317 145.209 267.001Z" fill="black"/>
  <path d="M205.766 286.194L247.586 268.904L286.625 363.439L244.804 380.729L205.766 286.194Z" fill="#FFDEBF"/>
  <path d="M181.955 244.466C178.349 233.684 184.161 222.019 194.937 218.411L214.834 211.749C225.61 208.141 237.268 213.956 240.873 224.738L251.855 257.573C255.46 268.355 249.648 280.02 238.873 283.628L218.975 290.29C208.2 293.898 196.542 288.082 192.936 277.301L181.955 244.466Z" fill="#F1B33A"/>
  <path d="M296.785 382.178C287.72 402.791 263.67 412.149 243.069 403.078C222.467 394.008 213.115 369.944 222.18 349.33C231.245 328.716 255.295 319.359 275.897 328.429C296.498 337.5 305.85 361.564 296.785 382.178Z" fill="#FFC792"/>
  <path d="M100.269 132.55L119.03 135.533L118.322 139.991L99.5606 137.008L100.269 132.55Z" fill="#4F250E"/>
  <path d="M220.932 161.2C216.4 171.506 204.376 176.185 194.076 171.65C183.776 167.115 179.1 155.084 183.632 144.777C188.164 134.471 200.189 129.793 210.489 134.328C220.789 138.863 225.464 150.894 220.932 161.2Z" fill="#FFC792"/>
  <path d="M439.671 144.745C439.671 193.775 399.947 233.522 350.946 233.522C301.945 233.522 262.222 193.775 262.222 144.745C262.222 95.7147 301.945 55.968 350.946 55.968C399.947 55.968 439.671 95.7147 439.671 144.745Z" fill="#C32929"/>
  <path d="M264.243 213.481L404.674 203.246L409.06 263.492L268.629 273.727L264.243 213.481Z" fill="#4F250E"/>
  <path d="M316.403 281.093C331.574 250.773 374.819 250.773 389.99 281.093L450.6 402.224C464.298 429.6 444.404 461.828 413.806 461.828H292.587C261.989 461.828 242.094 429.6 255.793 402.224L316.403 281.093Z" fill="#FFCD6B"/>
  <path d="M325.141 252.269L371.321 243.634L374.896 262.773L328.715 271.408L325.141 252.269Z" fill="#FFC792"/>
  <path d="M408.692 204.139C390.518 245.465 342.303 264.225 301.001 246.041C259.699 227.856 240.95 179.613 259.124 138.286C277.298 96.9598 312.536 96.6739 353.838 114.859C395.14 133.043 426.866 162.812 408.692 204.139Z" fill="#FFDEBF"/>
  <path d="M316.228 168.639C316.228 172.014 313.349 174.75 309.799 174.75C306.248 174.75 303.369 172.014 303.369 168.639C303.369 165.264 306.248 162.528 309.799 162.528C313.349 162.528 316.228 165.264 316.228 168.639Z" fill="#FFC792"/>
  <path d="M353.81 172.111C352.131 181.041 346.635 187.501 341.535 186.541C336.435 185.581 333.663 177.563 335.343 168.633C337.022 159.704 342.518 153.243 347.618 154.203C352.717 155.164 355.49 163.181 353.81 172.111Z" fill="#4F250E"/>
  <path d="M353.81 172.111C352.131 181.041 346.635 187.501 341.535 186.541C336.435 185.581 333.663 177.563 335.343 168.633C337.022 159.704 342.518 153.243 347.618 154.203C352.717 155.164 355.49 163.181 353.81 172.111Z" fill="#4F250E"/>
  <path d="M295.13 158.792C294.402 167.85 289.618 174.855 284.446 174.438C279.273 174.022 275.67 166.342 276.399 157.285C277.127 148.227 281.91 141.223 287.083 141.639C292.256 142.055 295.858 149.735 295.13 158.792Z" fill="#4F250E"/>
  <path d="M295.13 158.792C294.402 167.85 289.618 174.855 284.446 174.438C279.273 174.022 275.67 166.342 276.399 157.285C277.127 148.227 281.91 141.223 287.083 141.639C292.256 142.055 295.858 149.735 295.13 158.792Z" fill="#4F250E"/>
  <path d="M278.257 95.5525L385.964 132.117L382.133 161.853L257.078 126.824L278.257 95.5525Z" fill="#9B581A"/>
  <path d="M286.521 138.046C280.514 138.642 275.374 136.403 275.041 133.044C274.708 129.686 279.307 126.479 285.314 125.882C291.321 125.286 296.46 127.525 296.794 130.884C297.127 134.243 292.527 137.449 286.521 138.046Z" fill="#4F250E"/>
  <path d="M286.521 138.046C280.514 138.642 275.374 136.403 275.041 133.044C274.708 129.686 279.307 126.479 285.314 125.882C291.321 125.286 296.46 127.525 296.794 130.884C297.127 134.243 292.527 137.449 286.521 138.046Z" fill="#4F250E"/>
  <path d="M380.124 141.636L416.204 147.667L425.569 270.376L389.686 272.991L380.124 141.636Z" fill="#9B581A"/>
  <path d="M363.37 144.507C358.284 140.862 355.848 135.549 357.93 132.641C360.011 129.733 365.822 130.33 370.908 133.975C375.995 137.62 378.43 142.932 376.349 145.84C374.267 148.749 368.457 148.151 363.37 144.507Z" fill="#4F250E"/>
  <path d="M363.37 144.507C358.284 140.862 355.848 135.549 357.93 132.641C360.011 129.733 365.822 130.33 370.908 133.975C375.995 137.62 378.43 142.932 376.349 145.84C374.267 148.749 368.457 148.151 363.37 144.507Z" fill="#4F250E"/>
  <path d="M330.372 297.623C330.372 303.307 325.767 307.916 320.085 307.916C314.404 307.916 309.799 303.307 309.799 297.623C309.799 291.938 314.404 287.33 320.085 287.33C325.767 287.33 330.372 291.938 330.372 297.623Z" fill="black"/>
  <path d="M316.871 323.585C316.871 329.27 312.265 333.878 306.584 333.878C300.903 333.878 296.297 329.27 296.297 323.585C296.297 317.9 300.903 313.292 306.584 313.292C312.265 313.292 316.871 317.9 316.871 323.585Z" fill="black"/>
  <path d="M362.519 355.441L404.339 338.151L443.378 432.687L401.557 449.977L362.519 355.441Z" fill="#FFDEBF"/>
  <path d="M338.709 313.713C335.104 302.932 340.916 291.267 351.691 287.659L371.589 280.996C382.364 277.389 394.022 283.204 397.628 293.986L408.609 326.821C412.215 337.602 406.402 349.267 395.627 352.875L375.73 359.538C364.954 363.145 353.296 357.33 349.69 346.548L338.709 313.713Z" fill="#F1B33A"/>
  <path d="M453.538 445.635C444.473 466.249 420.423 475.607 399.822 466.536C379.22 457.466 369.868 433.402 378.933 412.788C387.998 392.174 412.048 382.816 432.65 391.887C453.251 400.958 462.603 425.022 453.538 445.635Z" fill="#FFC792"/>
  <path d="M410.428 148.595L424.561 157.61L421.025 177.231L418.45 182.805L403.091 208.143L387.708 233.155L365.09 247.031L355.768 250.247L345.802 252.178L373.327 227.635L389.276 200.383L403.132 174.618L410.428 148.595Z" fill="black"/>
  <path d="M421.526 214.981C416.994 225.287 404.97 229.965 394.67 225.43C384.37 220.895 379.694 208.864 384.226 198.558C388.759 188.252 400.783 183.573 411.083 188.108C421.383 192.643 426.058 204.674 421.526 214.981Z" fill="#FFC792"/>
  <path d="M425.325 164.749C420.326 175.736 383.868 139.399 339.066 118.995C294.263 98.5898 259.032 99.9549 264.03 88.9677C269.028 77.9805 304.85 83.7425 349.653 104.147C394.456 124.552 430.323 153.762 425.325 164.749Z" fill="#CC6868"/>
  <path d="M294.452 184.375L313.214 187.359L312.506 191.817L293.744 188.833L294.452 184.375Z" fill="#4F250E"/>
</svg>