<svg xmlns="http://www.w3.org/2000/svg" width="431" height="639" viewBox="0 0 431 639" fill="none">
  <path d="M378.774 236.64C396.483 213.433 407 184.445 407 153C407 76.7847 345.215 15 269 15C229.338 15 193.584 31.7321 168.411 58.5227C149.663 56.3614 137.196 58.8628 133.813 66.2967C130.716 73.1005 137.549 76.8572 151.298 80.9199C148.814 84.9663 146.534 89.1505 144.47 93.4585L123 125.142L133.256 128.014C133.161 128.532 133.07 129.051 132.981 129.572C130.57 133.686 128.301 138.144 126.182 142.96C111.619 176.055 112.298 212.003 125.163 242.946C118.627 242.197 111.861 242.461 105.068 243.87C70.7886 250.978 48.7619 284.528 55.8696 318.807C62.9774 353.087 96.5281 375.113 130.807 368.005C134.688 367.201 138.413 366.057 141.955 364.612L195.217 398.003L121.001 546.241C99.6945 588.796 130.638 638.893 178.229 638.893H366.771C414.363 638.893 445.305 588.796 423.999 546.241L329.728 357.947C326.363 351.226 322.11 345.464 317.222 340.66L328.345 339.849L329.256 352.353L385.067 348.288L378.533 262.724C378.616 262.543 378.698 262.362 378.779 262.179C382.505 253.709 382.229 244.49 378.774 236.64Z" fill="black"/>
  <path d="M68 95L81.5045 131.495L118 145L81.5045 158.505L68 195L54.4955 158.505L18 145L54.4955 131.495L68 95Z" fill="black"/>
  <path d="M50 80L63.5045 116.495L100 130L63.5045 143.505L50 180L36.4955 143.505L0 130L36.4955 116.495L50 80Z" fill="#FFCD6B"/>
  <path d="M389 138C389 214.215 327.215 276 251 276C174.785 276 113 214.215 113 138C113 61.7847 174.785 0 251 0C327.215 0 389 61.7847 389 138Z" fill="#C32929"/>
  <path d="M116.145 244.848L334.567 228.938L341.388 322.588L122.966 338.498L116.145 244.848Z" fill="black"/>
  <path d="M197.272 342.947C220.868 295.817 288.132 295.817 311.728 342.947L405.999 531.241C427.305 573.796 396.363 623.893 348.771 623.893H160.229C112.638 623.893 81.6945 573.796 103.001 531.241L197.272 342.947Z" fill="#FFCD6B"/>
  <path d="M210.863 305.142L282.691 291.719L288.25 321.47L216.423 334.892L210.863 305.142Z" fill="#FFC792"/>
  <path d="M340.816 230.326C312.549 294.566 237.557 323.728 173.316 295.46C109.076 267.193 79.9144 192.201 108.182 127.96C136.449 63.7202 191.258 63.2757 255.498 91.5431C319.739 119.81 369.084 166.085 340.816 230.326Z" fill="#FFDEBF"/>
  <path d="M197 175.143C197 180.389 192.523 184.643 187 184.643C181.477 184.643 177 180.389 177 175.143C177 169.896 181.477 165.643 187 165.643C192.523 165.643 197 169.896 197 175.143Z" fill="#FFC792"/>
  <path d="M255.455 180.54C252.842 194.421 244.294 204.463 236.362 202.97C228.431 201.477 224.118 189.015 226.731 175.134C229.343 161.253 237.891 151.21 245.823 152.703C253.755 154.196 258.067 166.659 255.455 180.54Z" fill="#4F250E"/>
  <path d="M255.455 180.54C252.842 194.421 244.294 204.463 236.362 202.97C228.431 201.477 224.118 189.015 226.731 175.134C229.343 161.253 237.891 151.21 245.823 152.703C253.755 154.196 258.067 166.659 255.455 180.54Z" fill="#4F250E"/>
  <path d="M164.185 159.836C163.052 173.916 155.612 184.804 147.567 184.157C139.522 183.51 133.918 171.572 135.051 157.493C136.183 143.413 143.623 132.525 151.669 133.172C159.714 133.819 165.318 145.757 164.185 159.836Z" fill="#4F250E"/>
  <path d="M164.185 159.836C163.052 173.916 155.612 184.804 147.567 184.157C139.522 183.51 133.918 171.572 135.051 157.493C136.183 143.413 143.623 132.525 151.669 133.172C159.714 133.819 165.318 145.757 164.185 159.836Z" fill="#4F250E"/>
  <path d="M296.383 133.167L352.5 142.543L367.067 333.288L311.256 337.353L296.383 133.167Z" fill="#9B581A"/>
  <path d="M219 375.643C219 384.479 211.837 391.643 203 391.643C194.163 391.643 187 384.479 187 375.643C187 366.806 194.163 359.643 203 359.643C211.837 359.643 219 366.806 219 375.643Z" fill="black"/>
  <path d="M198 416C198 424.837 190.837 432 182 432C173.163 432 166 424.837 166 416C166 407.163 173.163 400 182 400C190.837 400 198 407.163 198 416Z" fill="black"/>
  <path d="M234.52 335.859L197.135 395.49L119.879 347.056L157.263 287.425L234.52 335.859Z" fill="#FFDEBF"/>
  <path d="M302.314 367.203C316.606 377.6 319.764 397.613 309.367 411.905L290.17 438.296C279.773 452.588 259.76 455.746 245.468 445.35L201.943 413.688C187.651 403.292 184.493 383.279 194.889 368.987L214.087 342.595C224.483 328.304 244.497 325.146 258.789 335.542L302.314 367.203Z" fill="#F1B33A"/>
  <path d="M37.8696 303.807C30.7619 269.528 52.7886 235.978 87.0677 228.87C121.347 221.762 154.897 243.789 162.005 278.068C169.113 312.347 147.086 345.898 112.807 353.005C78.5281 360.113 44.9774 338.087 37.8696 303.807Z" fill="#FFC792"/>
  <path d="M343.518 143.985L365.499 157.999L359.999 188.499L355.994 197.163L332.106 236.55L308.179 275.43L273 297L258.5 302L243 305L285.81 266.849L310.617 224.487L332.169 184.437L343.518 143.985Z" fill="black"/>
  <path d="M360.779 247.179C353.729 263.199 335.027 270.472 319.007 263.422C302.986 256.373 295.714 237.671 302.763 221.65C309.813 205.63 328.515 198.357 344.535 205.407C360.556 212.456 367.828 231.158 360.779 247.179Z" fill="#FFC792"/>
  <path d="M137.94 61.5325L305.466 118.371L299.507 164.595L105 110.142L137.94 61.5325Z" fill="#9B581A"/>
  <path d="M366.687 169.096C358.913 186.175 302.207 129.691 232.521 97.9723C162.836 66.2538 108.039 68.3758 115.813 51.2967C123.586 34.2175 179.304 43.1743 248.989 74.8928C318.674 106.611 374.461 152.016 366.687 169.096Z" fill="#CC6868"/>
  <path d="M255.803 148.107C246.072 148.107 238.184 143.599 238.184 138.039C238.184 132.478 246.072 127.971 255.803 127.971C265.534 127.971 273.422 132.478 273.422 138.039C273.422 143.599 265.534 148.107 255.803 148.107Z" fill="#4F250E"/>
  <path d="M255.803 148.107C246.072 148.107 238.184 143.599 238.184 138.039C238.184 132.478 246.072 127.971 255.803 127.971C265.534 127.971 273.422 132.478 273.422 138.039C273.422 143.599 265.534 148.107 255.803 148.107Z" fill="#4F250E"/>
  <path d="M146.723 122.954C138.592 118.26 134.127 110.771 136.75 106.227C139.374 101.683 148.092 101.806 156.223 106.5C164.354 111.194 168.819 118.683 166.195 123.227C163.572 127.771 154.854 127.649 146.723 122.954Z" fill="#4F250E"/>
  <path d="M146.723 122.954C138.592 118.26 134.127 110.771 136.75 106.227C139.374 101.683 148.092 101.806 156.223 106.5C164.354 111.194 168.819 118.683 166.195 123.227C163.572 127.771 154.854 127.649 146.723 122.954Z" fill="#4F250E"/>
  <path d="M175.195 217.955C175.731 220.005 178.232 220.691 179.696 219.191L194.185 204.342C196.423 202.049 193.631 198.366 190.909 200.022L182.796 204.959C181.488 205.755 179.797 205.282 179.065 203.916L175.061 196.444C173.53 193.588 169.282 195.337 170.105 198.485L175.195 217.955Z" fill="black"/>
</svg>