<svg xmlns="http://www.w3.org/2000/svg" width="573" height="663" viewBox="0 0 573 663" fill="none">
  <path fill-rule="evenodd" clip-rule="evenodd" d="M448.186 158C448.186 170.94 446.405 183.464 443.075 195.34C445.988 195.723 448.896 196.521 451.721 197.764C467.742 204.814 475.014 223.516 467.965 239.536C461.638 253.915 445.923 261.247 431.186 257.501V339H347.697V344.959C350.652 348.243 353.254 352.023 355.396 356.301L366.583 378.646L369.102 377.058C384.055 367.637 403.814 372.122 413.235 387.074L441.926 432.612C447.139 440.885 448.095 450.629 445.376 459.279L490.506 521.029C494.333 520.999 498.216 521.317 502.119 522.008C536.591 528.111 559.589 561.003 553.487 595.475C547.384 629.948 514.492 652.946 480.019 646.843C475.464 646.036 471.109 644.762 466.995 643.078C458.049 654.549 444.115 662.25 427.623 662.25H193.749C156.568 662.25 132.394 623.112 149.039 589.866L221.803 444.532C217.734 443.638 213.773 441.931 210.162 439.368L166.268 408.219C157.684 402.127 153.009 392.577 152.793 382.804L86.1727 339.049C82.5999 340.419 78.8518 341.484 74.9538 342.207C40.5321 348.588 7.45462 325.857 1.07323 291.435C-5.30816 257.014 17.423 223.936 51.8447 217.555C86.2665 211.173 119.344 233.905 125.725 268.326C126.548 272.763 126.887 277.177 126.779 281.515L193.329 325.224C194.593 324.793 195.881 324.442 197.186 324.173V262.712C196.086 260.376 195.056 258.008 194.099 255.611C186.17 259.221 176.795 259.565 168.193 255.78C152.172 248.73 144.9 230.028 151.949 214.008C156.641 203.345 166.494 196.558 177.283 195.289C173.962 183.428 172.186 170.921 172.186 158C172.186 81.7847 233.971 20 310.186 20C377.791 20 434.042 68.6134 445.889 132.79C449.416 135.785 451.321 138.875 451.321 141.98C451.321 144.392 450.082 146.033 447.759 147.061C448.042 150.67 448.186 154.318 448.186 158ZM235.706 339H274.626V343.933C271.276 347.448 268.345 351.57 265.977 356.301L264.432 359.386L235.706 339Z" fill="black"/>
  <path d="M401.201 472.825L458.023 431.296L513.064 506.606L456.242 548.135L401.201 472.825Z" fill="#FFDEBF"/>
  <path d="M349.956 418.588C340.535 403.635 345.02 383.876 359.972 374.455L387.584 357.058C402.536 347.637 422.295 352.122 431.716 367.074L460.408 412.612C469.829 427.565 465.345 447.323 450.392 456.744L422.78 474.141C407.828 483.562 388.069 479.078 378.648 464.125L349.956 418.588Z" fill="#F1B33A"/>
  <path d="M571.968 575.475C565.866 609.948 532.973 632.946 498.501 626.843C464.029 620.74 441.031 587.848 447.133 553.375C453.236 518.903 486.128 495.905 520.601 502.008C555.073 508.111 578.071 541.003 571.968 575.475Z" fill="#FFC792"/>
  <path d="M466.668 138C466.668 214.215 404.883 276 328.668 276C252.452 276 190.668 214.215 190.668 138C190.668 61.7847 252.452 0 328.668 0C404.883 0 466.668 61.7847 466.668 138Z" fill="#C32929"/>
  <path d="M228.446 219.536C221.397 235.557 202.695 242.829 186.674 235.78C170.654 228.73 163.381 210.028 170.431 194.008C177.48 177.987 196.182 170.715 212.203 177.764C228.223 184.814 235.496 203.516 228.446 219.536Z" fill="#FFC792"/>
  <path d="M486.446 219.536C479.397 235.557 460.695 242.829 444.674 235.78C428.654 228.73 421.381 210.028 428.431 194.008C435.48 177.987 454.182 170.715 470.203 177.764C486.223 184.814 493.496 203.516 486.446 219.536Z" fill="#FFC792"/>
  <path d="M215.668 210H449.668V319H215.668V210Z" fill="#4F250E"/>
  <path d="M212.847 305.905L174.21 364.732L104.585 319.003L143.222 260.176L212.847 305.905Z" fill="#FFDEBF"/>
  <path d="M284.569 340.561C298.982 350.789 302.374 370.764 292.146 385.177L273.259 411.791C263.031 426.204 243.056 429.596 228.643 419.368L184.75 388.219C170.337 377.991 166.945 358.015 177.173 343.603L196.06 316.988C206.288 302.576 226.263 299.183 240.676 309.411L284.569 340.561Z" fill="#F1B33A"/>
  <path d="M19.5547 271.435C13.1733 237.014 35.9045 203.936 70.3262 197.555C104.748 191.173 137.825 213.905 144.207 248.326C150.588 282.748 127.857 315.825 93.4353 322.207C59.0135 328.588 25.9361 305.857 19.5547 271.435Z" fill="#FFC792"/>
  <path d="M284.458 336.301C302.893 299.48 355.442 299.48 373.877 336.301L490.814 569.866C507.46 603.112 483.285 642.25 446.105 642.25H212.23C175.05 642.25 150.876 603.112 167.521 569.866L284.458 336.301Z" fill="#FFCD6B"/>
  <path d="M344.668 376C344.668 384.837 337.504 392 328.668 392C319.831 392 312.668 384.837 312.668 376C312.668 367.163 319.831 360 328.668 360C337.504 360 344.668 367.163 344.668 376Z" fill="black"/>
  <path d="M344.668 417C344.668 425.837 337.504 433 328.668 433C319.831 433 312.668 425.837 312.668 417C312.668 408.163 319.831 401 328.668 401C337.504 401 344.668 408.163 344.668 417Z" fill="black"/>
  <path d="M293.107 273H366.178V346.071H293.107V273Z" fill="#FFC792"/>
  <path d="M446.923 239.682C418.656 303.923 343.664 333.084 279.423 304.817C215.183 276.55 186.021 201.557 214.289 137.317C242.556 73.0768 311.498 133.499 384.498 100.5C446.924 114 475.191 175.442 446.923 239.682Z" fill="#FFDEBF"/>
  <path d="M340.107 203.5C340.107 208.747 335.63 213 330.107 213C324.584 213 320.107 208.747 320.107 203.5C320.107 198.253 324.584 194 330.107 194C335.63 194 340.107 198.253 340.107 203.5Z" fill="#FFC792"/>
  <path d="M387.335 170.575C387.335 184.7 380.792 196.15 372.721 196.15C364.65 196.15 358.107 184.7 358.107 170.575C358.107 156.45 364.65 145 372.721 145C380.792 145 387.335 156.45 387.335 170.575Z" fill="#4F250E"/>
  <path d="M387.335 170.575C387.335 184.7 380.792 196.15 372.721 196.15C364.65 196.15 358.107 184.7 358.107 170.575C358.107 156.45 364.65 145 372.721 145C380.792 145 387.335 156.45 387.335 170.575Z" fill="#4F250E"/>
  <path d="M302.335 168.575C302.335 182.7 295.792 194.15 287.721 194.15C279.65 194.15 273.107 182.7 273.107 168.575C273.107 154.45 279.65 143 287.721 143C295.792 143 302.335 154.45 302.335 168.575Z" fill="#4F250E"/>
  <path d="M302.335 168.575C302.335 182.7 295.792 194.15 287.721 194.15C279.65 194.15 273.107 182.7 273.107 168.575C273.107 154.45 279.65 143 287.721 143C295.792 143 302.335 154.45 302.335 168.575Z" fill="#4F250E"/>
  <path d="M315.668 229.508C315.668 227.571 317.238 226 319.176 226H341.707C343.644 226 345.215 227.571 345.215 229.508C345.215 231.446 343.644 233.017 341.707 233.017H319.176C317.238 233.017 315.668 231.446 315.668 229.508Z" fill="#4F250E"/>
  <path d="M215.666 127.5L237.055 132.087L225.167 156L203.667 176L205.666 158.5L207.667 150.5L209.583 142.996L215.666 127.5Z" fill="#9B581A"/>
  <path d="M447.167 128.762L425.778 133.349L437.667 157.262L457.167 175.5V159.762L455.167 151.762L453.251 144.258L447.167 128.762Z" fill="#9B581A"/>
  <path d="M284.462 149.586C275.119 150.514 267.125 147.033 266.606 141.812C266.088 136.591 273.242 131.607 282.585 130.679C291.928 129.752 299.922 133.232 300.44 138.454C300.958 143.675 293.804 148.659 284.462 149.586Z" fill="#4F250E"/>
  <path d="M284.462 149.586C275.119 150.514 267.125 147.033 266.606 141.812C266.088 136.591 273.242 131.607 282.585 130.679C291.928 129.752 299.922 133.232 300.44 138.454C300.958 143.675 293.804 148.659 284.462 149.586Z" fill="#4F250E"/>
  <path d="M377.585 149.586C386.927 150.514 394.922 147.033 395.44 141.812C395.958 136.591 388.804 131.607 379.461 130.679C370.118 129.752 362.124 133.232 361.606 138.454C361.088 143.675 368.242 148.659 377.585 149.586Z" fill="#4F250E"/>
  <path d="M377.585 149.586C386.927 150.514 394.922 147.033 395.44 141.812C395.958 136.591 388.804 131.607 379.461 130.679C370.118 129.752 362.124 133.232 361.606 138.454C361.088 143.675 368.242 148.659 377.585 149.586Z" fill="#4F250E"/>
  <path d="M222 101.5H440.5L453.168 143L332.668 138.5L210.668 142.068L222 101.5Z" fill="#9B581A"/>
  <path d="M469.802 121.98C469.802 140.745 394.791 112.828 318.227 112.828C241.663 112.828 192.668 137.46 192.668 118.695C192.668 99.93 247.089 85 323.654 85C400.218 85 469.802 103.215 469.802 121.98Z" fill="#CC6868"/>
</svg>