<svg xmlns="http://www.w3.org/2000/svg" width="412" height="635" viewBox="0 0 412 635" fill="none">
  <path fill-rule="evenodd" clip-rule="evenodd" d="M0 154C0 185.776 10.7397 215.044 28.7874 238.371C24.1226 246.745 23.2973 257.129 27.4557 266.579C34.4362 282.443 52.8421 289.729 68.7564 283.025C79.1138 294.675 91.4194 304.164 104.936 311.208L100.998 332.284C58.5484 339.523 26.2344 376.488 26.2344 421V545C26.2344 594.706 66.5287 635 116.234 635H161.234C210.94 635 251.234 594.706 251.234 545V421C251.234 404.75 246.928 389.506 239.394 376.347L269.279 357.612C272.822 359.057 276.546 360.201 280.427 361.005C314.706 368.113 348.257 346.087 355.365 311.807C362.473 277.528 340.446 243.978 306.167 236.87C299.054 235.395 291.973 235.175 285.153 236.058C293.88 207.856 292.875 176.502 280.052 147.36C278.478 143.784 276.787 140.389 274.984 137.171C274.51 133.27 273.873 129.42 273.08 125.627C275.303 123.401 276.825 120.865 277.536 118.037C279.929 108.515 272.66 97.5721 259.116 87.8022C258.025 85.811 256.887 83.8495 255.702 81.9195C269.45 77.8569 276.282 74.1003 273.186 67.2967C269.802 59.863 257.336 57.3616 238.589 59.5225C213.416 32.732 177.662 16 138 16C61.7847 16 0 77.7847 0 154ZM193.347 322.147L177.024 332.381C176.474 332.283 175.921 332.191 175.367 332.103L176.696 324.995C182.255 324.424 187.816 323.479 193.347 322.147Z" fill="black"/>
  <path d="M329.73 128.495L343.234 92L356.739 128.495L393.234 142L356.739 155.505L343.234 192L329.73 155.505L293.234 142L329.73 128.495Z" fill="black"/>
  <path d="M361.234 76L347.73 112.495L311.234 126L347.73 139.505L361.234 176L374.739 139.505L411.234 126L374.739 112.495L361.234 76Z" fill="#FFCD6B"/>
  <path d="M269.234 405C269.234 355.294 228.94 315 179.234 315H134.234C84.5287 315 44.2344 355.294 44.2344 405V529C44.2344 578.706 84.5287 619 134.234 619H179.234C228.94 619 269.234 578.706 269.234 529V405Z" fill="#FFCD6B"/>
  <path d="M18 138C18 214.215 79.7847 276 156 276C232.215 276 294 214.215 294 138C294 61.7847 232.215 0 156 0C79.7847 0 18 61.7847 18 138Z" fill="#3F84C5"/>
  <path d="M194.807 308.401L122.979 294.979L116.57 329.277L188.398 342.699L194.807 308.401Z" fill="#FFC792"/>
  <path d="M65.4171 233.726C93.6845 297.966 168.677 327.128 232.917 298.86C297.157 270.593 326.319 195.601 298.052 131.36C269.784 67.1202 203.475 61.2761 139.235 89.5435C74.9944 117.811 37.1497 169.485 65.4171 233.726Z" fill="#FFDEBF"/>
  <path d="M209.234 178.543C209.234 183.79 213.712 188.043 219.234 188.043C224.757 188.043 229.234 183.79 229.234 178.543C229.234 173.296 224.757 169.043 219.234 169.043C213.712 169.043 209.234 173.296 209.234 178.543Z" fill="#FFC792"/>
  <path d="M141.045 176.158C143.658 190.039 152.206 200.081 160.138 198.588C168.069 197.096 172.382 184.633 169.769 170.752C167.157 156.871 158.609 146.828 150.677 148.321C142.745 149.814 138.433 162.277 141.045 176.158Z" fill="#4F250E"/>
  <path d="M141.045 176.158C143.658 190.039 152.206 200.081 160.138 198.588C168.069 197.096 172.382 184.633 169.769 170.752C167.157 156.871 158.609 146.828 150.677 148.321C142.745 149.814 138.433 162.277 141.045 176.158Z" fill="#4F250E"/>
  <path d="M238.049 153.836C239.182 167.916 246.622 178.804 254.668 178.157C262.713 177.51 268.316 165.572 267.184 151.493C266.051 137.413 258.611 126.525 250.566 127.172C242.52 127.819 236.917 139.757 238.049 153.836Z" fill="#4F250E"/>
  <path d="M238.049 153.836C239.182 167.916 246.622 178.804 254.668 178.157C262.713 177.51 268.316 165.572 267.184 151.493C266.051 137.413 258.611 126.525 250.566 127.172C242.52 127.819 236.917 139.757 238.049 153.836Z" fill="#4F250E"/>
  <path d="M295.536 102.037C290.986 120.132 253.258 126.244 211.266 115.688C169.275 105.131 149.685 96.1388 154.234 78.0429C175.234 74.043 185.734 76.043 227.741 50.1567C269.732 60.7132 300.085 83.9406 295.536 102.037Z" fill="#9B581A"/>
  <path d="M54.329 174.891C68.7412 189.718 104.98 177.87 135.271 148.428C165.561 118.986 178.146 92.3701 163.734 77.5427C143.948 99.3155 125.025 86.6009 94.7338 116.043C64.4431 145.486 39.9169 160.063 54.329 174.891Z" fill="#9B581A"/>
  <path d="M63.4792 143.985L41.4975 157.999L46.9975 188.499L51.0029 197.163L71.7344 239.043L103.234 278.043L134.734 301.043L161.733 308.543L121.187 266.849L93.2344 225.543L74.8282 184.437L63.4792 143.985Z" fill="black"/>
  <path d="M40.3114 169.096C48.0853 186.175 104.791 129.691 174.477 97.9723C244.162 66.2538 298.959 68.3758 291.186 51.2967C283.412 34.2175 227.694 43.1743 158.009 74.8928C88.3239 106.611 32.5375 152.016 40.3114 169.096Z" fill="#689DCE"/>
  <path d="M195.234 366C195.234 374.837 202.398 382 211.234 382C220.071 382 227.234 374.837 227.234 366C227.234 357.163 220.071 350 211.234 350C202.398 350 195.234 357.163 195.234 366Z" fill="black"/>
  <path d="M202.234 396C202.234 404.837 209.398 412 218.234 412C227.071 412 234.234 404.837 234.234 396C234.234 387.163 227.071 380 218.234 380C209.398 380 202.234 387.163 202.234 396Z" fill="black"/>
  <path d="M45.4557 250.579C52.5052 266.6 71.2071 273.872 87.2276 266.823C103.248 259.773 110.521 241.071 103.471 225.051C96.4217 209.03 77.7198 201.758 61.6993 208.807C45.6788 215.857 38.4063 234.558 45.4557 250.579Z" fill="#FFC792"/>
  <path d="M149.432 146.107C159.162 146.107 167.051 141.599 167.051 136.039C167.051 130.478 159.162 125.971 149.432 125.971C139.701 125.971 131.813 130.478 131.812 136.039C131.812 141.599 139.701 146.107 149.432 146.107Z" fill="#4F250E"/>
  <path d="M149.432 146.107C159.162 146.107 167.051 141.599 167.051 136.039C167.051 130.478 159.162 125.971 149.432 125.971C139.701 125.971 131.813 130.478 131.812 136.039C131.812 141.599 139.701 146.107 149.432 146.107Z" fill="#4F250E"/>
  <path d="M258.511 120.954C266.642 116.26 271.107 108.771 268.484 104.227C265.861 99.6835 257.142 99.8056 249.011 104.5C240.881 109.194 236.416 116.683 239.039 121.227C241.662 125.771 250.381 125.649 258.511 120.954Z" fill="#4F250E"/>
  <path d="M258.511 120.954C266.642 116.26 271.107 108.771 268.484 104.227C265.861 99.6835 257.142 99.8056 249.011 104.5C240.881 109.194 236.416 116.683 239.039 121.227C241.662 125.771 250.381 125.649 258.511 120.954Z" fill="#4F250E"/>
  <path d="M176.715 327.859L214.099 387.49L348.815 303.033L311.431 243.402L176.715 327.859Z" fill="#FFDEBF"/>
  <path d="M108.921 359.203C94.6288 369.6 91.4708 389.613 101.867 403.905L121.065 430.296C131.461 444.588 151.475 447.746 165.766 437.35L209.292 405.688C223.583 395.292 226.741 375.279 216.345 360.987L197.148 334.595C186.751 320.304 166.738 317.146 152.446 327.542L108.921 359.203Z" fill="#F1B33A"/>
  <path d="M373.365 295.807C380.473 261.528 358.446 227.978 324.167 220.87C289.888 213.762 256.337 235.789 249.229 270.068C242.121 304.347 264.148 337.898 298.427 345.005C332.706 352.113 366.257 330.087 373.365 295.807Z" fill="#FFC792"/>
  <path d="M233.039 221.955C232.503 224.005 230.003 224.691 228.539 223.191L214.05 208.342C211.812 206.049 214.604 202.366 217.325 204.022L225.438 208.959C226.746 209.755 228.437 209.282 229.169 207.916L233.173 200.444C234.704 197.588 238.953 199.337 238.13 202.485L233.039 221.955Z" fill="black"/>
</svg>