<svg xmlns="http://www.w3.org/2000/svg" width="625" height="662" viewBox="0 0 625 662" fill="none">
  <path d="M425.932 156C425.932 168.843 424.177 181.276 420.895 193.073C425.101 193.097 429.373 193.963 433.467 195.765C449.488 202.813 456.76 221.516 449.711 237.536C442.662 253.557 423.96 260.829 407.939 253.779L407.846 253.738C407.317 255.059 406.765 256.374 406.189 257.683C390.389 293.59 359.991 318.538 325.032 328.623V358H348.932C353.596 358 358.153 358.463 362.558 359.345L401.92 331.411C410.636 325.226 421.387 324.021 430.786 327.224L497.336 283.515C497.228 279.177 497.567 274.763 498.389 270.326C504.77 235.904 537.848 213.174 572.27 219.555C606.691 225.937 629.423 259.014 623.042 293.436C616.66 327.857 583.583 350.588 549.161 344.207C548.681 344.118 548.204 344.024 547.728 343.925C547.204 343.815 546.682 343.699 546.164 343.577C545.261 343.366 544.368 343.136 543.483 342.887C542.995 342.749 542.509 342.606 542.027 342.458C541.603 342.328 541.181 342.193 540.761 342.056C540.489 341.966 540.217 341.874 539.947 341.78C539.272 341.547 538.603 341.303 537.941 341.049L471.321 384.804C471.105 394.576 466.43 404.126 457.846 410.219L417.932 438.544V593C417.932 631.107 387.04 662 348.932 662H233.932C195.825 662 164.932 631.107 164.932 593V524.779L140.175 558.654C141.798 562.679 143.029 566.932 143.816 571.376C149.919 605.848 126.921 638.74 92.4489 644.843C57.9763 650.945 25.0837 627.947 18.9812 593.476C12.8786 559.003 35.8767 526.11 70.3483 520.008C74.2517 519.316 78.1345 518.999 81.9606 519.028L127.092 457.278C124.374 448.628 125.33 438.885 130.542 430.612L159.233 385.074C166.714 373.201 180.711 367.93 193.645 370.977C204.981 362.811 218.895 358 233.932 358H252.032V327.828C250.428 327.326 248.829 326.79 247.234 326.22C244.369 325.195 241.518 324.062 238.689 322.817C206.941 308.848 183.761 283.466 171.846 253.61C163.917 257.221 154.542 257.565 145.939 253.779C129.919 246.73 122.646 228.028 129.695 212.008C134.387 201.346 144.24 194.559 155.029 193.289C151.708 181.428 149.932 168.921 149.932 156C149.932 79.7852 211.717 18 287.932 18C355.537 18 411.788 66.6133 423.634 130.79C427.162 133.785 429.067 136.875 429.067 139.98C429.067 142.393 427.828 144.033 425.506 145.062C425.789 148.671 425.932 152.318 425.932 156Z" fill="black"/>
  <path d="M408.9 138C408.9 214.215 347.115 276 270.9 276C194.685 276 132.9 214.215 132.9 138C132.9 61.7847 194.685 0 270.9 0C347.115 0 408.9 61.7847 408.9 138Z" fill="#3F84C5"/>
  <path d="M432.679 219.536C425.629 235.557 406.927 242.829 390.907 235.78C374.886 228.73 367.614 210.028 374.663 194.008C381.713 177.987 400.415 170.715 416.435 177.764C432.456 184.814 439.728 203.516 432.679 219.536Z" fill="#FFC792"/>
  <path d="M170.679 219.536C163.629 235.557 144.927 242.829 128.907 235.78C112.886 228.73 105.614 210.028 112.663 194.008C119.713 177.987 138.415 170.715 154.435 177.764C170.456 184.814 177.728 203.516 170.679 219.536Z" fill="#FFC792"/>
  <path d="M235 307H308V346H235V307Z" fill="#FFC792"/>
  <path d="M410.08 311.637L448.717 370.464L525.839 319.811L487.202 260.984L410.08 311.637Z" fill="#FFDEBF"/>
  <path d="M340.995 344.561C326.582 354.789 323.19 374.764 333.418 389.177L352.305 415.791C362.533 430.204 382.508 433.596 396.921 423.368L440.814 392.219C455.227 381.991 458.619 362.015 448.391 347.603L429.504 320.988C419.276 306.576 399.3 303.183 384.888 313.411L340.995 344.561Z" fill="#F1B33A"/>
  <path d="M606.009 275.435C612.39 241.014 589.659 207.936 555.238 201.555C520.816 195.173 487.738 217.905 481.357 252.326C474.976 286.748 497.707 319.825 532.128 326.207C566.55 332.588 599.628 309.857 606.009 275.435Z" fill="#FFC792"/>
  <path d="M172.716 472.825L115.894 431.296L60.8673 506.586L117.689 548.116L172.716 472.825Z" fill="#FFDEBF"/>
  <path d="M223.961 418.588C233.382 403.635 228.898 383.876 213.945 374.455L186.334 357.058C171.381 347.637 151.622 352.122 142.201 367.074L113.51 412.612C104.088 427.565 108.573 447.323 123.525 456.744L151.137 474.141C166.089 483.562 185.848 479.078 195.269 464.125L223.961 418.588Z" fill="#F1B33A"/>
  <path d="M1.94897 575.475C8.05166 609.948 40.9441 632.946 75.4164 626.843C109.889 620.74 132.887 587.848 126.784 553.375C120.681 518.903 87.7888 495.905 53.3166 502.008C18.8443 508.111 -4.15372 541.003 1.94897 575.475Z" fill="#FFC792"/>
  <path d="M147.9 409C147.9 370.892 178.792 340 216.9 340H331.9C370.008 340 400.9 370.892 400.9 409V575C400.9 613.108 370.008 644 331.9 644H216.9C178.792 644 147.9 613.108 147.9 575V409Z" fill="#FFCD6B"/>
  <path d="M389.157 239.683C360.89 303.923 285.897 333.085 221.657 304.818C157.417 276.55 128.255 201.558 156.522 137.318C184.79 73.0774 280.478 139.818 328 95.5004C389.156 95.4993 417.424 175.443 389.157 239.683Z" fill="#FFDEBF"/>
  <path d="M282.338 203.5C282.338 208.747 277.86 213 272.338 213C266.815 213 262.338 208.747 262.338 203.5C262.338 198.253 266.815 194 272.338 194C277.86 194 282.338 198.253 282.338 203.5Z" fill="#FFC792"/>
  <path d="M329.566 170.575C329.566 184.7 323.023 196.15 314.952 196.15C306.881 196.15 300.338 184.7 300.338 170.575C300.338 156.45 306.881 145 314.952 145C323.023 145 329.566 156.45 329.566 170.575Z" fill="#4F250E"/>
  <path d="M329.566 170.575C329.566 184.7 323.023 196.15 314.952 196.15C306.881 196.15 300.338 184.7 300.338 170.575C300.338 156.45 306.881 145 314.952 145C323.023 145 329.566 156.45 329.566 170.575Z" fill="#4F250E"/>
  <path d="M244.566 168.575C244.566 182.7 238.023 194.15 229.952 194.15C221.881 194.15 215.338 182.7 215.338 168.575C215.338 154.45 221.881 143 229.952 143C238.023 143 244.566 154.45 244.566 168.575Z" fill="#4F250E"/>
  <path d="M244.566 168.575C244.566 182.7 238.023 194.15 229.952 194.15C221.881 194.15 215.338 182.7 215.338 168.575C215.338 154.45 221.881 143 229.952 143C238.023 143 244.566 154.45 244.566 168.575Z" fill="#4F250E"/>
  <path d="M392.765 152.716C382.327 168.183 344.771 161.085 308.882 136.864C272.992 112.643 263.063 109.966 273.501 94.5C283.939 79.0337 314.702 116.644 352.501 103C380.999 92.7121 403.203 137.25 392.765 152.716Z" fill="#9B581A"/>
  <path d="M149.205 152.53C159.643 167.996 197.199 160.899 233.088 136.678C268.978 112.457 278.907 109.78 268.469 94.3135C258.031 78.8472 227.268 116.458 189.469 102.813C160.971 92.5256 138.767 137.063 149.205 152.53Z" fill="#9B581A"/>
  <path d="M226.692 149.586C217.349 150.514 209.355 147.033 208.837 141.812C208.319 136.591 215.472 131.607 224.815 130.679C234.158 129.752 242.152 133.232 242.671 138.454C243.189 143.675 236.035 148.659 226.692 149.586Z" fill="#4F250E"/>
  <path d="M226.692 149.586C217.349 150.514 209.355 147.033 208.837 141.812C208.319 136.591 215.472 131.607 224.815 130.679C234.158 129.752 242.152 133.232 242.671 138.454C243.189 143.675 236.035 148.659 226.692 149.586Z" fill="#4F250E"/>
  <path d="M319.815 149.586C329.158 150.514 337.152 147.033 337.67 141.812C338.189 136.591 331.035 131.607 321.692 130.679C312.349 129.752 304.355 133.232 303.837 138.454C303.318 143.675 310.472 148.659 319.815 149.586Z" fill="#4F250E"/>
  <path d="M319.815 149.586C329.158 150.514 337.152 147.033 337.67 141.812C338.189 136.591 331.035 131.607 321.692 130.679C312.349 129.752 304.355 133.232 303.837 138.454C303.318 143.675 310.472 148.659 319.815 149.586Z" fill="#4F250E"/>
  <path d="M412.035 121.98C412.035 140.745 337.024 112.828 260.46 112.828C183.895 112.828 134.9 137.46 134.9 118.695C134.9 99.93 189.322 85 265.886 85C342.45 85 412.035 103.215 412.035 121.98Z" fill="#689DCE"/>
  <path d="M257.9 229.508C257.9 227.571 259.471 226 261.408 226H283.939C285.877 226 287.448 227.571 287.448 229.508C287.448 231.446 285.877 233.017 283.939 233.017H261.408C259.471 233.017 257.9 231.446 257.9 229.508Z" fill="#4F250E"/>
  <path d="M289.9 385C289.9 393.837 282.737 401 273.9 401C265.064 401 257.9 393.837 257.9 385C257.9 376.163 265.064 369 273.9 369C282.737 369 289.9 376.163 289.9 385Z" fill="black"/>
  <path d="M289.9 426C289.9 434.837 282.737 442 273.9 442C265.064 442 257.9 434.837 257.9 426C257.9 417.163 265.064 410 273.9 410C282.737 410 289.9 417.163 289.9 426Z" fill="black"/>
</svg>