<svg width="1920" height="1080" viewBox="0 0 1920 1080" fill="none" xmlns="http://www.w3.org/2000/svg">
<rect width="1920" height="1080" fill="#28E1C0"/>
<ellipse cx="1484.98" cy="121.035" rx="40.0586" ry="40.3448" fill="white" fill-opacity="0.6"/>
<ellipse cx="1811.07" cy="505.862" rx="17.5695" ry="20.1724" fill="white" fill-opacity="0.5"/>
<ellipse cx="959.297" cy="1000.86" rx="26.0029" ry="27.931" fill="white" fill-opacity="0.6"/>
<ellipse cx="207.321" cy="121.81" rx="48.492" ry="51.9827" fill="white" fill-opacity="0.3"/>
<path fill-rule="evenodd" clip-rule="evenodd" d="M1920 0H1634.73C1634.69 1.80479 1634.67 3.61523 1634.67 5.43105C1634.67 121.554 1715.22 215.69 1814.58 215.69C1853.96 215.69 1890.38 200.908 1920 175.834V0Z" fill="white" fill-opacity="0.1"/>
<path fill-rule="evenodd" clip-rule="evenodd" d="M56.1963 777.562C36.5194 765.702 17.4079 754.182 0 741.55V359.378C132.463 164.341 171.496 317.287 216.345 493.016C258.534 658.328 305.869 843.802 440.969 778.713C712.314 701.515 879.112 931.09 818.992 1080H254.726C253.478 1075.72 252.259 1071.36 251.07 1066.93C236.56 886.279 141.113 828.747 56.1963 777.562Z" fill="white" fill-opacity="0.1"/>
<path fill-rule="evenodd" clip-rule="evenodd" d="M1342.13 1080H1041.7C1073.01 1032.47 1128.58 1000.86 1191.92 1000.86C1255.26 1000.86 1310.83 1032.47 1342.13 1080Z" fill="white" fill-opacity="0.2"/>
<path fill-rule="evenodd" clip-rule="evenodd" d="M1770.39 1080C1792.29 1064.87 1814.34 1042.73 1836.96 1011.93C2021.13 761.246 1713.83 385.664 1423.09 617.43C1267.92 687.362 1220.24 500.614 1175.36 324.872C1124.65 126.246 1077.52 -58.3215 882.861 157.63C698.69 408.316 518.045 817.219 1159.59 926.9C1302.94 932.328 1411.95 990.408 1503.48 1039.18C1531.86 1054.3 1558.55 1068.52 1584.07 1080H1770.39Z" fill="white" fill-opacity="0.3"/>
</svg>
