<svg
  xmlns="http://www.w3.org/2000/svg"
  width="30"
  height="30"
  viewBox="0 0 19 17"
  fill="none"
>
  <g clipPath="url(#clip0_2758_6696)">
    <path d="M10 1H9V16H10V1Z" fill="white" />
    <path d="M7 1H4V2H7V1Z" fill="white" />
    <path d="M15 1H12V2H15V1Z" fill="white" />
    <path d="M4 2H3V3H4V2Z" fill="white" />
    <path d="M6 2H5V3H6V2Z" fill="white" />
    <path d="M14 2H13V3H14V2Z" fill="white" />
    <path d="M16 2H15V3H16V2Z" fill="white" />
    <path d="M1 6H0V11H1V6Z" fill="white" />
    <path d="M19 6H18V11H19V6Z" fill="white" />
    <path d="M18 8H1V9H18V8Z" fill="white" />
    <path d="M5 11H4V13H5V11Z" fill="white" />
    <path d="M18 4H17V6H18V4Z" fill="white" />
    <path d="M2 4H1V6H2V4Z" fill="white" />
    <path d="M2 11H1V13H2V11Z" fill="white" />
    <path d="M15 11H14V13H15V11Z" fill="white" />
    <path d="M16 9H15V11H16V9Z" fill="white" />
    <path d="M16 6H15V8H16V6Z" fill="white" />
    <path d="M15 4H14V6H15V4Z" fill="white" />
    <path d="M5 4H4V6H5V4Z" fill="white" />
    <path d="M4 9H3V11H4V9Z" fill="white" />
    <path d="M4 6H3V8H4V6Z" fill="white" />
    <path d="M4 14H3V15H4V14Z" fill="white" />
    <path d="M6 14H5V15H6V14Z" fill="white" />
    <path d="M14 14H13V15H14V14Z" fill="white" />
    <path d="M16 14H15V15H16V14Z" fill="white" />
    <path d="M7 15H4V16H7V15Z" fill="white" />
    <path d="M15 15H12V16H15V15Z" fill="white" />
    <path d="M13 16H6V17H13V16Z" fill="white" />
    <path d="M13 0H6V1H13V0Z" fill="white" />
    <path d="M17 13H2V14H17V13Z" fill="white" />
    <path d="M17 3H2V4H17V3Z" fill="white" />
    <path d="M18 11H17V13H18V11Z" fill="white" />
  </g>
  <defs>
    <clipPath id="clip0_2758_6696">
      <rect width="19" height="17" fill="white" />
    </clipPath>
  </defs>
</svg> 